<?xml version="1.0" standalone="no"?><!DOCTYPE svg PUBLIC "-//W3C//DTD SVG 1.1//EN" "http://www.w3.org/Graphics/SVG/1.1/DTD/svg11.dtd"><svg xmlns:xlink="http://www.w3.org/1999/xlink" version="1.1" style="font-family:'lucida grande', 'lucida sans unicode', verdana, arial, helvetica, sans-serif;font-size:12px;" xmlns="http://www.w3.org/2000/svg" width="600" height="400"><desc>Created with Highcharts 3.0.10</desc><defs><clipPath id="highcharts-7"><rect x="0" y="0" width="436" height="345"></rect></clipPath></defs><rect x="0" y="0" width="600" height="400" fill="#FFFFFF" class=" highcharts-background"></rect><g class="highcharts-grid" ><path fill="none" d="M 228 212.5 L 347.51150572225254 143.5" stroke="#C0C0C0" stroke-width="1"  opacity="1"></path><path fill="none" d="M 228 212.5 L 347.51150572225254 281.5" stroke="#C0C0C0" stroke-width="1"  opacity="1"></path><path fill="none" d="M 228 212.5 L 228 350.5" stroke="#C0C0C0" stroke-width="1"  opacity="1"></path><path fill="none" d="M 228 212.5 L 108.48849427774749 281.50000000000006" stroke="#C0C0C0" stroke-width="1"  opacity="1"></path><path fill="none" d="M 228 212.5 L 108.48849427774739 143.50000000000009" stroke="#C0C0C0" stroke-width="1"  opacity="1"></path><path fill="none" d="M 228 212.5 L 227.99999999999997 74.5" stroke="#C0C0C0" stroke-width="1"  opacity="1"></path><path fill="none" d="M 228 212.5 L 228 74.5" stroke="#C0C0C0" stroke-width="1"  opacity="1"></path></g><g class="highcharts-grid" ><path fill="none" d="M 228 74.5 L 227.99999999999997 74.5 L 108.48849427774739 143.50000000000009 L 108.48849427774749 281.50000000000006 L 228 350.5 L 347.51150572225254 281.5 L 347.51150572225254 143.5 L 228 74.5" stroke="#C0C0C0" stroke-width="1"  opacity="1"></path><path fill="none" d="M 228 120.5 L 227.99999999999997 120.5 L 148.3256628518316 166.50000000000006 L 148.32566285183168 258.5 L 228 304.5 L 307.6743371481684 258.5 L 307.6743371481684 166.5 L 228 120.5" stroke="#C0C0C0" stroke-width="1"  opacity="1"></path><path fill="none" d="M 228 166.5 L 228 166.5 L 188.16283142591578 189.50000000000003 L 188.16283142591584 235.5 L 228 258.5 L 267.8371685740842 235.5 L 267.83716857408416 189.5 L 228 166.5" stroke="#C0C0C0" stroke-width="1"  opacity="1"></path><path fill="none" d="M 228 212.5 L 228 212.5 L 228 212.5 L 228 212.5 L 228 212.5 L 228 212.5 L 228 212.5 L 228 212.5" stroke="#C0C0C0" stroke-width="1"  opacity="1"></path></g><g class="highcharts-axis" ></g><g class="highcharts-axis" ></g><g class="highcharts-series-group" ><g class="highcharts-series" visibility="visible"  transform="translate(10,40) scale(1 1)" clip-path="url(#highcharts-7)"><path fill="none" d="M 218 93.38 L 248.27624811630398 155.01999999999998 L 313.6092045778021 227.7 L 218 236.89999999999998 L 190.91072536962275 188.14000000000001 L 202.0651325703663 163.3 L 218 93.38" stroke="#2f7ed8" stroke-width="2"  stroke-linejoin="round" stroke-linecap="round"></path><path fill="none" d="M 208 93.38 L 218 93.38 L 248.27624811630398 155.01999999999998 L 313.6092045778021 227.7 L 218 236.89999999999998 L 190.91072536962275 188.14000000000001 L 202.0651325703663 163.3 L 218 93.38 L 228 93.38" stroke-linejoin="round" visibility="visible" stroke-opacity="0.0001" stroke="rgb(192,192,192)" stroke-width="22"  class=" highcharts-tracker" style=""></path></g><g class="highcharts-markers highcharts-tracker" visibility="visible"  transform="translate(10,40) scale(1 1)" style="" clip-path="none"><path fill="#2f7ed8" d="M 202 159.3 C 207.328 159.3 207.328 167.3 202 167.3 C 196.672 167.3 196.672 159.3 202 159.3 Z"></path><path fill="#2f7ed8" d="M 190 184.14000000000001 C 195.328 184.14000000000001 195.328 192.14000000000001 190 192.14000000000001 C 184.672 192.14000000000001 184.672 184.14000000000001 190 184.14000000000001 Z"></path><path fill="#2f7ed8" d="M 218 232.89999999999998 C 223.328 232.89999999999998 223.328 240.89999999999998 218 240.89999999999998 C 212.672 240.89999999999998 212.672 232.89999999999998 218 232.89999999999998 Z"></path><path fill="#2f7ed8" d="M 313 223.7 C 318.328 223.7 318.328 231.7 313 231.7 C 307.672 231.7 307.672 223.7 313 223.7 Z"></path><path fill="#2f7ed8" d="M 248 151.01999999999998 C 253.328 151.01999999999998 253.328 159.01999999999998 248 159.01999999999998 C 242.672 159.01999999999998 242.672 151.01999999999998 248 151.01999999999998 Z"></path><path fill="#2f7ed8" d="M 218 89.38 C 223.328 89.38 223.328 97.38 218 97.38 C 212.672 97.38 212.672 89.38 218 89.38 Z"></path></g><g class="highcharts-series" visibility="visible"  transform="translate(10,40) scale(1 1)" clip-path="url(#highcharts-7)"><path fill="none" d="M 218 80.5 L 280.1459829755713 136.62 L 284.9264432044614 211.14 L 218 229.53999999999996 L 176.56934468295248 196.42000000000002 L 195.69118559851285 159.62 L 218 80.5" stroke="#0d233a" stroke-width="2"  stroke-linejoin="round" stroke-linecap="round"></path><path fill="none" d="M 208 80.5 L 218 80.5 L 280.1459829755713 136.62 L 284.9264432044614 211.14 L 218 229.53999999999996 L 176.56934468295248 196.42000000000002 L 195.69118559851285 159.62 L 218 80.5 L 228 80.5" stroke-linejoin="round" visibility="visible" stroke-opacity="0.0001" stroke="rgb(192,192,192)" stroke-width="22"  class=" highcharts-tracker" style=""></path></g><g class="highcharts-markers highcharts-tracker" visibility="visible"  transform="translate(10,40) scale(1 1)" style="" clip-path="none"><path fill="#0d233a" d="M 195 155.62 L 199 159.62 195 163.62 191 159.62 Z"></path><path fill="#0d233a" d="M 176 192.42000000000002 L 180 196.42000000000002 176 200.42000000000002 172 196.42000000000002 Z"></path><path fill="#0d233a" d="M 218 225.53999999999996 L 222 229.53999999999996 218 233.53999999999996 214 229.53999999999996 Z"></path><path fill="#0d233a" d="M 284 207.14 L 288 211.14 284 215.14 280 211.14 Z"></path><path fill="#0d233a" d="M 280 132.62 L 284 136.62 280 140.62 276 136.62 Z"></path><path fill="#0d233a" d="M 218 76.5 L 222 80.5 218 84.5 214 80.5 Z"></path></g></g><text x="220" y="25" text-anchor="middle" class="highcharts-title"  style="color:#274b6d;font-size:16px;fill:#274b6d;width:536px;"><tspan x="220">Budget vs spending</tspan></text><g class="highcharts-legend"  transform="translate(456,80)"><rect x="0.5" y="0.5" width="133" height="42" rx="5" ry="5" stroke="#909090" stroke-width="1" fill="none" visibility="visible"></rect><g ><g><g class="highcharts-legend-item"  transform="translate(8,3)"><path fill="none" d="M 0 11 L 16 11" stroke="#2f7ed8" stroke-width="2"></path><path fill="#2f7ed8" d="M 8 7 C 13.328 7 13.328 15 8 15 C 2.6719999999999997 15 2.6719999999999997 7 8 7 Z"></path><text x="21" y="15" style="color:#274b6d;font-size:12px;cursor:pointer;fill:#274b6d;" text-anchor="start" ><tspan x="21">Allocated Budget</tspan></text></g><g class="highcharts-legend-item"  transform="translate(8,19)"><path fill="none" d="M 0 11 L 16 11" stroke="#0d233a" stroke-width="2"></path><path fill="#0d233a" d="M 8 7 L 12 11 8 15 4 11 Z"></path><text x="21" y="15" style="color:#274b6d;font-size:12px;cursor:pointer;fill:#274b6d;" text-anchor="start" ><tspan x="21">Actual Spending</tspan></text></g></g></g></g><g class="highcharts-axis-labels highcharts-xaxis-labels" ><text x="228" y="64" text-anchor="middle" style="width:42px;color:#666;cursor:default;font-size:11px;fill:#666;" opacity="1"><tspan x="228">Sales</tspan></text><text x="360.5018867790191" y="140.5" text-anchor="start" style="width:42px;color:#666;cursor:default;font-size:11px;fill:#666;" opacity="1"><tspan x="360.5018867790191">Marketing</tspan></text><text x="360.5018867790192" y="293.5" text-anchor="start" style="width:42px;color:#666;cursor:default;font-size:11px;fill:#666;" opacity="1"><tspan x="360.5018867790192">Development</tspan></text><text x="228" y="362.5" text-anchor="middle" style="width:42px;color:#666;cursor:default;font-size:11px;fill:#666;" opacity="1"><tspan x="228">Customer</tspan><tspan dy="15" x="228">Support</tspan></text><text x="95.49811322098091" y="286.00000000000006" text-anchor="end" style="width:42px;color:#666;cursor:default;font-size:11px;fill:#666;" opacity="1"><tspan x="95.49811322098091">Information</tspan><tspan dy="15" x="95.49811322098091">Technology</tspan></text><text x="95.4981132209808" y="140.5000000000001" text-anchor="end" style="width:42px;color:#666;cursor:default;font-size:11px;fill:#666;" opacity="1"><tspan x="95.4981132209808">Administration</tspan></text><text x="0" y="-9999" text-anchor="middle" style="width:42px;color:#666;cursor:default;font-size:11px;fill:#666;"><tspan x="0">6</tspan></text></g><g class="highcharts-axis-labels highcharts-yaxis-labels" ><text x="225" y="210.5" text-anchor="end" style="width:178px;color:#666;cursor:default;font-size:11px;fill:#666;" opacity="1"><tspan x="225">0k</tspan></text><text x="225" y="164.5" text-anchor="end" style="width:178px;color:#666;cursor:default;font-size:11px;fill:#666;" opacity="1"><tspan x="225">25k</tspan></text><text x="225" y="118.5" text-anchor="end" style="width:178px;color:#666;cursor:default;font-size:11px;fill:#666;" opacity="1"><tspan x="225">50k</tspan></text><text x="0" y="-9999" text-anchor="end" style="width:178px;color:#666;cursor:default;font-size:11px;fill:#666;"><tspan x="0">75k</tspan></text></g><g class="highcharts-tooltip"  style="cursor:default;padding:0;white-space:nowrap;" transform="translate(0,-9999)"><rect x="0.5" y="0.5" width="16" height="16" fill="none" fill-opacity="0.85" rx="3" ry="3"  stroke="black" stroke-opacity="0.049999999999999996" stroke-width="5" transform="translate(1, 1)"></rect><rect x="0.5" y="0.5" width="16" height="16" fill="none" fill-opacity="0.85" rx="3" ry="3"  stroke="black" stroke-opacity="0.09999999999999999" stroke-width="3" transform="translate(1, 1)"></rect><rect x="0.5" y="0.5" width="16" height="16" fill="none" fill-opacity="0.85" rx="3" ry="3"  stroke="black" stroke-opacity="0.15" stroke-width="1" transform="translate(1, 1)"></rect><rect x="0.5" y="0.5" width="16" height="16" fill="rgb(255,255,255)" fill-opacity="0.85" rx="3" ry="3"></rect><text x="8" y="21"  style="font-size:12px;color:#333333;fill:#333333;"></text></g><text x="590" y="395" text-anchor="end"  style="cursor:pointer;color:#909090;font-size:9px;fill:#909090;"><tspan x="590">Highcharts.com</tspan></text></svg>