<?xml version="1.0" standalone="no"?><!DOCTYPE svg PUBLIC "-//W3C//DTD SVG 1.1//EN" "http://www.w3.org/Graphics/SVG/1.1/DTD/svg11.dtd"><svg xmlns:xlink="http://www.w3.org/1999/xlink" version="1.1" style="font-family:'lucida grande', 'lucida sans unicode', verdana, arial, helvetica, sans-serif;font-size:12px;" xmlns="http://www.w3.org/2000/svg" width="600" height="220"><desc>Created with Highcharts 3.0.10</desc><defs><clipPath id="highcharts-5"><rect x="0" y="0" width="580" height="165"></rect></clipPath></defs><rect x="0" y="0" width="600" height="220" fill="#FFFFFF" class=" highcharts-background"></rect><g class="highcharts-series-group" ><g class="highcharts-series highcharts-tracker" visibility="visible"  transform="translate(10,40) scale(1 1)" style="cursor:pointer;"><path fill="#2f7ed8" d="M 289.9852336927321 10.500001503750624 A 72.5 72.5 0 0 1 312.4476539466342 151.937310886719 L 290 83 A 0 0 0 0 0 290 83 Z" stroke="#FFFFFF" stroke-width="1" stroke-linejoin="round" transform="translate(0,0)" visibility="inherit"></path><path fill="#0d233a" d="M 312.378705423411 151.95972406827175 A 72.5 72.5 0 0 1 218.96820304185036 97.51667389232836 L 290 83 A 0 0 0 0 0 290 83 Z" stroke="#FFFFFF" stroke-width="1" stroke-linejoin="round" transform="translate(0,0)" visibility="inherit"></path><path fill="#8bbc21" d="M 218.95372188627306 97.4456348488725 A 72.5 72.5 0 0 1 230.2618897377502 41.91949145525004 L 290 83 A 0 0 0 0 0 290 83 Z" stroke="#FFFFFF" stroke-width="1" stroke-linejoin="round" transform="translate(-10,-2)" visibility="inherit"></path><path fill="#910000" d="M 230.30300010850087 41.85977389519673 A 72.5 72.5 0 0 1 259.48792496705096 17.233266181270025 L 290 83 A 0 0 0 0 0 290 83 Z" stroke="#FFFFFF" stroke-width="1" stroke-linejoin="round" transform="translate(0,0)" visibility="inherit"></path><path fill="#1aadce" d="M 259.5537069459449 17.20278699468662 A 72.5 72.5 0 0 1 286.7104287005975 10.57466796302451 L 290 83 A 0 0 0 0 0 290 83 Z" stroke="#FFFFFF" stroke-width="1" stroke-linejoin="round" transform="translate(0,0)" visibility="inherit"></path><path fill="#492970" d="M 286.78285566534913 10.571414604936407 A 72.5 72.5 0 0 1 289.89929895448984 10.500069935899816 L 290 83 A 0 0 0 0 0 290 83 Z" stroke="#FFFFFF" stroke-width="1" stroke-linejoin="round" transform="translate(0,0)" visibility="inherit"></path></g><g class="highcharts-markers" visibility="visible"  transform="translate(10,40) scale(1 1)"></g></g><text x="300" y="25" text-anchor="middle" class="highcharts-title"  style="color:#274b6d;font-size:16px;fill:#274b6d;width:536px;"><tspan x="300">Overview of Process Area Levels</tspan></text><g class="highcharts-legend" ><rect x="0.5" y="0.5" width="7" height="7" rx="5" ry="5" stroke="#909090" stroke-width="1" fill="none" visibility="hidden"></rect><g ><g></g></g></g><g class="highcharts-tooltip"  style="cursor:default;padding:0;white-space:nowrap;" transform="translate(0,-9999)"><rect x="0.5" y="0.5" width="16" height="16" fill="none" fill-opacity="0.85" rx="3" ry="3"  stroke="black" stroke-opacity="0.049999999999999996" stroke-width="5" transform="translate(1, 1)"></rect><rect x="0.5" y="0.5" width="16" height="16" fill="none" fill-opacity="0.85" rx="3" ry="3"  stroke="black" stroke-opacity="0.09999999999999999" stroke-width="3" transform="translate(1, 1)"></rect><rect x="0.5" y="0.5" width="16" height="16" fill="none" fill-opacity="0.85" rx="3" ry="3"  stroke="black" stroke-opacity="0.15" stroke-width="1" transform="translate(1, 1)"></rect><rect x="0.5" y="0.5" width="16" height="16" fill="rgb(255,255,255)" fill-opacity="0.85" rx="3" ry="3"></rect><text x="8" y="21"  style="font-size:12px;color:#333333;fill:#333333;"></text></g><text x="590" y="215" text-anchor="end"  style="cursor:pointer;color:#909090;font-size:9px;fill:#909090;"><tspan x="590">Highcharts.com</tspan></text></svg>