<svg xmlns:xlink="http://www.w3.org/1999/xlink" height="400" width="600" xmlns="http://www.w3.org/2000/svg" style="font-family:'lucida grande', 'lucida sans unicode', verdana, arial, helvetica, sans-serif;font-size:12px;" version="1.1"><desc>Created with Highcharts 3.0.10</desc><defs><clipPath id="highcharts-3"><rect height="308" width="580" y="0" x="0"></rect></clipPath></defs><rect class=" highcharts-background" fill="#FFFFFF" height="400" width="600" y="0" x="0"></rect><g  class="highcharts-grid"><path opacity="1"  stroke-width="1" stroke="#C0C0C0" d="M 300 194 L 366.60694871052965 90.35756475519848" fill="none"></path><path opacity="1"  stroke-width="1" stroke="#C0C0C0" d="M 300 194 L 412.0666618276767 142.82087039816759" fill="none"></path><path opacity="1"  stroke-width="1" stroke="#C0C0C0" d="M 300 194 L 421.9460016397309 211.53318807526873" fill="none"></path><path opacity="1"  stroke-width="1" stroke="#C0C0C0" d="M 300 194 L 393.1083475604446 274.6788424220591" fill="none"></path><path opacity="1"  stroke-width="1" stroke="#C0C0C0" d="M 300 194 L 334.7094510028641 312.20953434930607" fill="none"></path><path opacity="1"  stroke-width="1" stroke="#C0C0C0" d="M 300 194 L 265.2905489971359 312.20953434930607" fill="none"></path><path opacity="1"  stroke-width="1" stroke="#C0C0C0" d="M 300 194 L 206.8916524395554 274.6788424220591" fill="none"></path><path opacity="1"  stroke-width="1" stroke="#C0C0C0" d="M 300 194 L 178.05399836026908 211.53318807526873" fill="none"></path><path opacity="1"  stroke-width="1" stroke="#C0C0C0" d="M 300 194 L 187.93333817232332 142.82087039816764" fill="none"></path><path opacity="1"  stroke-width="1" stroke="#C0C0C0" d="M 300 194 L 233.3930512894704 90.35756475519847" fill="none"></path><path opacity="1"  stroke-width="1" stroke="#C0C0C0" d="M 300 194 L 300 70.8" fill="none"></path><path opacity="1"  stroke-width="1" stroke="#C0C0C0" d="M 300 194 L 300 70.8" fill="none"></path></g><g  class="highcharts-grid"><path opacity="1"  stroke-width="1" stroke="#C0C0C0" d="M 300 70.8 L 300 70.8 L 233.3930512894704 90.35756475519847 L 187.93333817232332 142.82087039816764 L 178.05399836026908 211.53318807526873 L 206.8916524395554 274.6788424220591 L 265.2905489971359 312.20953434930607 L 334.7094510028641 312.20953434930607 L 393.1083475604446 274.6788424220591 L 421.9460016397309 211.53318807526873 L 412.0666618276767 142.82087039816759 L 366.60694871052965 90.35756475519848 L 300 70.8" fill="none"></path><path opacity="1"  stroke-width="1" stroke="#C0C0C0" d="M 300 101.6 L 300 101.6 L 250.0447884671028 116.26817356639886 L 215.95000362924247 155.61565279862572 L 208.5404987702018 207.14989105645157 L 230.16873932966655 254.50913181654437 L 273.96791174785193 282.65715076197955 L 326.0320882521481 282.65715076197955 L 369.83126067033345 254.50913181654434 L 391.4595012297982 207.14989105645154 L 384.0499963707575 155.6156527986257 L 349.95521153289724 116.26817356639886 L 300 101.6" fill="none"></path><path opacity="1"  stroke-width="1" stroke="#C0C0C0" d="M 300 132.4 L 300 132.4 L 266.6965256447352 142.17878237759925 L 243.96666908616166 168.41043519908382 L 239.02699918013454 202.76659403763438 L 253.4458262197777 234.33942121102956 L 282.64527449856797 253.10476717465303 L 317.3547255014321 253.10476717465303 L 346.5541737802223 234.33942121102956 L 360.97300081986543 202.76659403763435 L 356.0333309138383 168.4104351990838 L 333.3034743552648 142.17878237759925 L 300 132.4" fill="none"></path><path opacity="1"  stroke-width="1" stroke="#C0C0C0" d="M 300 163.2 L 300 163.2 L 283.3482628223676 168.08939118879962 L 271.98333454308084 181.2052175995419 L 269.5134995900673 198.3832970188172 L 276.72291310988885 214.16971060551478 L 291.32263724928396 223.55238358732652 L 308.67736275071604 223.55238358732652 L 323.27708689011115 214.16971060551478 L 330.4865004099327 198.3832970188172 L 328.01666545691916 181.2052175995419 L 316.6517371776324 168.08939118879962 L 300 163.2" fill="none"></path><path opacity="1"  stroke-width="1" stroke="#C0C0C0" d="M 300 194 L 300 194 L 300 194 L 300 194 L 300 194 L 300 194 L 300 194 L 300 194 L 300 194 L 300 194 L 300 194 L 300 194 L 300 194" fill="none"></path></g><g  class="highcharts-axis"></g><g  class="highcharts-axis"></g><g  class="highcharts-series-group"><g clip-path="url(#highcharts-3)" transform="translate(10,40) scale(1 1)"  visibility="visible" class="highcharts-series"><path stroke-linecap="round" stroke-linejoin="round"  stroke-width="2" stroke="#2f7ed8" d="M 290 92.4 L 306.6517371776324 128.08939118879962 L 346.0333309138383 128.4104351990838 L 320.4865004099327 158.3832970188172 L 313.27708689011115 174.16971060551478 L 298.67736275071604 183.55238358732652 L 281.32263724928396 183.55238358732652 L 243.4458262197777 194.33942121102956 L 229.02699918013454 162.76659403763438 L 261.98333454308084 141.2052175995419 L 290 154 L 290 92.4" fill="none"></path><path style="" class=" highcharts-tracker"  stroke-width="22" stroke="rgb(192,192,192)" stroke-opacity="0.0001" visibility="visible" stroke-linejoin="round" d="M 280 92.4 L 290 92.4 L 306.6517371776324 128.08939118879962 L 346.0333309138383 128.4104351990838 L 320.4865004099327 158.3832970188172 L 313.27708689011115 174.16971060551478 L 298.67736275071604 183.55238358732652 L 281.32263724928396 183.55238358732652 L 243.4458262197777 194.33942121102956 L 229.02699918013454 162.76659403763438 L 261.98333454308084 141.2052175995419 L 290 154 L 290 92.4 L 300 92.4" fill="none"></path></g><g clip-path="none" style="" transform="translate(10,40) scale(1 1)"  visibility="visible" class="highcharts-markers highcharts-tracker"></g><g clip-path="url(#highcharts-3)" transform="translate(10,40) scale(1 1)"  visibility="visible" class="highcharts-series"><path stroke-linecap="round" stroke-linejoin="round"  stroke-width="2" stroke="#C60B2E" d="M 290 61.599999999999994 L 323.3034743552648 102.17878237759925 L 374.0499963707575 115.61565279862569 L 350.97300081986543 162.76659403763435 L 359.83126067033345 214.50913181654434 L 316.0320882521481 242.65715076197955 L 266.5711205730667 233.7914356857816 L 243.4458262197777 194.33942121102956 L 229.02699918013454 162.76659403763438 L 205.95000362924247 115.61565279862572 L 240.0447884671028 76.26817356639886 L 290 61.599999999999994" fill="none"></path><path style="" class=" highcharts-tracker"  stroke-width="22" stroke="rgb(192,192,192)" stroke-opacity="0.0001" visibility="visible" stroke-linejoin="round" d="M 280 61.599999999999994 L 290 61.599999999999994 L 323.3034743552648 102.17878237759925 L 374.0499963707575 115.61565279862569 L 350.97300081986543 162.76659403763435 L 359.83126067033345 214.50913181654434 L 316.0320882521481 242.65715076197955 L 266.5711205730667 233.7914356857816 L 243.4458262197777 194.33942121102956 L 229.02699918013454 162.76659403763438 L 205.95000362924247 115.61565279862572 L 240.0447884671028 76.26817356639886 L 290 61.599999999999994 L 300 61.599999999999994" fill="none"></path></g><g clip-path="none" style="" transform="translate(10,40) scale(1 1)"  visibility="visible" class="highcharts-markers highcharts-tracker"></g></g><text style="color:#274b6d;font-size:16px;fill:#274b6d;width:536px;"  class="highcharts-title" text-anchor="middle" y="25" x="300"><tspan x="300">Overall HR Maturity</tspan></text><g transform="translate(238,358)"  class="highcharts-legend"><rect visibility="visible" fill="none" stroke-width="1" stroke="#909090" ry="5" rx="5" height="26" width="123" y="0.5" x="0.5"></rect><g ><g><g transform="translate(8,3)"  class="highcharts-legend-item"><path stroke-width="2" stroke="#2f7ed8" d="M 0 11 L 16 11" fill="none"></path><text  text-anchor="start" style="color:#274b6d;font-size:12px;cursor:pointer;fill:#274b6d;" y="15" x="21"><tspan x="21">006</tspan></text></g><g transform="translate(64,3)"  class="highcharts-legend-item"><path stroke-width="2" stroke="#C60B2E" d="M 0 11 L 16 11" fill="none"></path><text  text-anchor="start" style="color:#274b6d;font-size:12px;cursor:pointer;fill:#274b6d;" y="15" x="21"><tspan x="21">Ideal</tspan></text></g></g></g></g><g  class="highcharts-axis-labels highcharts-xaxis-labels"><text opacity="1" style="width:170px;color:#666;cursor:default;font-size:13px;font-family:verdana, sans-serif;fill:#666;" text-anchor="middle" y="61.80000000000001" x="300"><tspan x="300">Recruitment</tspan></text><text opacity="1" style="width:170px;color:#666;cursor:default;font-size:13px;font-family:verdana, sans-serif;fill:#666;" text-anchor="start" y="83.73876176273079" x="374.7165609723636"><tspan x="374.7165609723636">HR Management</tspan></text><text opacity="1" style="width:170px;color:#666;cursor:default;font-size:13px;font-family:verdana, sans-serif;fill:#666;" text-anchor="start" y="142.5896452031393" x="425.7111417579944"><tspan x="425.7111417579944">Manpower Planning</tspan></text><text opacity="1" style="width:170px;color:#666;cursor:default;font-size:13px;font-family:verdana, sans-serif;fill:#666;" text-anchor="start" y="219.667910649368" x="436.7933232679449"><tspan x="436.7933232679449">Training &amp; Development</tspan></text><text opacity="1" style="width:170px;color:#666;cursor:default;font-size:13px;font-family:verdana, sans-serif;fill:#666;" text-anchor="start" y="282.0017534312384" x="404.4445911757585"><tspan x="404.4445911757585">Performance</tspan><tspan x="404.4445911757585" dy="17">Management</tspan></text><text opacity="1" style="width:170px;color:#666;cursor:default;font-size:13px;font-family:verdana, sans-serif;fill:#666;" text-anchor="middle" y="332.6019289535235" x="338.9354393554856"><tspan x="338.9354393554856" style="text-anchor: start; ">Compensation &amp; Benefits</tspan></text><text opacity="1" style="width:170px;color:#666;cursor:default;font-size:13px;font-family:verdana, sans-serif;fill:#666;" text-anchor="middle" y="324.10192895352355" x="261.0645606445145"><tspan x="261.0645606445145" style="text-anchor: end; ">Talent Management &amp;</tspan><tspan style="text-anchor: end; " x="261.0645606445145" dy="17">Succession Planning</tspan></text><text opacity="1" style="width:170px;color:#666;cursor:default;font-size:13px;font-family:verdana, sans-serif;fill:#666;" text-anchor="end" y="282.0017534312384" x="195.5554088242415"><tspan x="195.5554088242415">Organization Culture &amp;</tspan><tspan x="195.5554088242415" dy="17">Core Values</tspan></text><text opacity="1" style="width:170px;color:#666;cursor:default;font-size:13px;font-family:verdana, sans-serif;fill:#666;" text-anchor="end" y="211.167910649368" x="163.20667673205512"><tspan x="163.20667673205512">Employee Engagement &amp;</tspan><tspan x="163.20667673205512" dy="17">Communications</tspan></text><text opacity="1" style="width:170px;color:#666;cursor:default;font-size:13px;font-family:verdana, sans-serif;fill:#666;" text-anchor="end" y="134.08964520313936" x="174.28885824200555"><tspan x="174.28885824200555">Employee Value</tspan><tspan x="174.28885824200555" dy="17">Proposition (EVP)</tspan></text><text opacity="1" style="width:170px;color:#666;cursor:default;font-size:13px;font-family:verdana, sans-serif;fill:#666;" text-anchor="end" y="83.73876176273076" x="225.28343902763643"><tspan x="225.28343902763643">International Mobility</tspan></text><text style="width:170px;color:#666;cursor:default;font-size:13px;font-family:verdana, sans-serif;fill:#666;" text-anchor="middle" y="-9999" x="0"><tspan x="0">11</tspan></text></g><g  class="highcharts-axis-labels highcharts-yaxis-labels"><text opacity="1" style="width:178px;color:#666;cursor:default;font-size:11px;fill:#666;" text-anchor="end" y="192" x="297"><tspan x="297">0</tspan></text><text opacity="1" style="width:178px;color:#666;cursor:default;font-size:11px;fill:#666;" text-anchor="end" y="161.2" x="297"><tspan x="297">1</tspan></text><text opacity="1" style="width:178px;color:#666;cursor:default;font-size:11px;fill:#666;" text-anchor="end" y="130.4" x="297"><tspan x="297">2</tspan></text><text opacity="1" style="width:178px;color:#666;cursor:default;font-size:11px;fill:#666;" text-anchor="end" y="99.6" x="297"><tspan x="297">3</tspan></text><text style="width:178px;color:#666;cursor:default;font-size:11px;fill:#666;" text-anchor="end" y="-9999" x="0"><tspan x="0">4</tspan></text></g><g transform="translate(0,-9999)" style="cursor:default;padding:0;white-space:nowrap;"  class="highcharts-tooltip"><rect transform="translate(1, 1)" stroke-width="5" stroke-opacity="0.049999999999999996" stroke="black"  ry="3" rx="3" fill-opacity="0.85" fill="none" height="16" width="16" y="0.5" x="0.5"></rect><rect transform="translate(1, 1)" stroke-width="3" stroke-opacity="0.09999999999999999" stroke="black"  ry="3" rx="3" fill-opacity="0.85" fill="none" height="16" width="16" y="0.5" x="0.5"></rect><rect transform="translate(1, 1)" stroke-width="1" stroke-opacity="0.15" stroke="black"  ry="3" rx="3" fill-opacity="0.85" fill="none" height="16" width="16" y="0.5" x="0.5"></rect><rect ry="3" rx="3" fill-opacity="0.85" fill="rgb(255,255,255)" height="16" width="16" y="0.5" x="0.5"></rect><text style="font-size:12px;color:#333333;fill:#333333;"  y="21" x="8"></text></g></svg>