<svg xmlns:xlink="http://www.w3.org/1999/xlink" version="1.1" style="font-family:'lucida grande', 'lucida sans unicode', verdana, arial, helvetica, sans-serif;font-size:12px;" xmlns="http://www.w3.org/2000/svg" width="600" height="400"><desc>Created with Highcharts 3.0.10</desc><defs><clipPath id="highcharts-5"><rect x="0" y="0" width="580" height="308"></rect></clipPath></defs><rect x="0" y="0" width="600" height="400" fill="#FFFFFF" class=" highcharts-background"></rect><g class="highcharts-grid" ><path fill="none" d="M 300 194 L 366.60694871052954 90.35756475519864" stroke="#C0C0C0" stroke-width="1"  opacity="1"></path><path fill="none" d="M 300 194 L 412.0666618276766 142.82087039816759" stroke="#C0C0C0" stroke-width="1"  opacity="1"></path><path fill="none" d="M 300 194 L 421.94600163973075 211.5331880752687" stroke="#C0C0C0" stroke-width="1"  opacity="1"></path><path fill="none" d="M 300 194 L 393.1083475604446 274.6788424220591" stroke="#C0C0C0" stroke-width="1"  opacity="1"></path><path fill="none" d="M 300 194 L 334.70945100286406 312.20953434930595" stroke="#C0C0C0" stroke-width="1"  opacity="1"></path><path fill="none" d="M 300 194 L 265.29054899713594 312.20953434930595" stroke="#C0C0C0" stroke-width="1"  opacity="1"></path><path fill="none" d="M 300 194 L 206.89165243955543 274.6788424220591" stroke="#C0C0C0" stroke-width="1"  opacity="1"></path><path fill="none" d="M 300 194 L 178.05399836026925 211.5331880752687" stroke="#C0C0C0" stroke-width="1"  opacity="1"></path><path fill="none" d="M 300 194 L 187.93333817232335 142.82087039816764" stroke="#C0C0C0" stroke-width="1"  opacity="1"></path><path fill="none" d="M 300 194 L 233.39305128947052 90.35756475519861" stroke="#C0C0C0" stroke-width="1"  opacity="1"></path><path fill="none" d="M 300 194 L 300 70.8" stroke="#C0C0C0" stroke-width="1"  opacity="1"></path><path fill="none" d="M 300 194 L 300 70.8" stroke="#C0C0C0" stroke-width="1"  opacity="1"></path></g><g class="highcharts-grid" ><path fill="none" d="M 300 70.8 L 300 70.8 L 233.39305128947052 90.35756475519861 L 187.93333817232335 142.82087039816764 L 178.05399836026925 211.5331880752687 L 206.89165243955543 274.6788424220591 L 265.29054899713594 312.20953434930595 L 334.70945100286406 312.20953434930595 L 393.1083475604446 274.6788424220591 L 421.94600163973075 211.5331880752687 L 412.0666618276766 142.82087039816759 L 366.60694871052954 90.35756475519864 L 300 70.8" stroke="#C0C0C0" stroke-width="1"  opacity="1"></path><path fill="none" d="M 300 101.6 L 300 101.6 L 250.04478846710288 116.26817356639896 L 215.9500036292425 155.61565279862572 L 208.5404987702019 207.1498910564515 L 230.16873932966658 254.5091318165443 L 273.96791174785193 282.6571507619795 L 326.03208825214807 282.6571507619795 L 369.83126067033345 254.5091318165443 L 391.4595012297981 207.1498910564515 L 384.04999637075747 155.6156527986257 L 349.9552115328971 116.26817356639897 L 300 101.6" stroke="#C0C0C0" stroke-width="1"  opacity="1"></path><path fill="none" d="M 300 132.4 L 300 132.4 L 266.69652564473523 142.1787823775993 L 243.9666690861617 168.41043519908382 L 239.02699918013462 202.76659403763435 L 253.4458262197777 234.33942121102956 L 282.64527449856797 253.10476717465298 L 317.35472550143203 253.10476717465298 L 346.5541737802223 234.33942121102956 L 360.9730008198654 202.76659403763435 L 356.0333309138383 168.4104351990838 L 333.30347435526477 142.1787823775993 L 300 132.4" stroke="#C0C0C0" stroke-width="1"  opacity="1"></path><path fill="none" d="M 300 163.2 L 300 163.2 L 283.34826282236764 168.08939118879965 L 271.98333454308084 181.20521759954192 L 269.5134995900673 198.38329701881716 L 276.72291310988885 214.16971060551478 L 291.32263724928396 223.5523835873265 L 308.67736275071604 223.5523835873265 L 323.27708689011115 214.16971060551478 L 330.4865004099327 198.3832970188172 L 328.01666545691916 181.2052175995419 L 316.65173717763236 168.08939118879965 L 300 163.2" stroke="#C0C0C0" stroke-width="1"  opacity="1"></path><path fill="none" d="M 300 194 L 300 194 L 300 194 L 300 194 L 300 194 L 300 194 L 300 194 L 300 194 L 300 194 L 300 194 L 300 194 L 300 194 L 300 194" stroke="#C0C0C0" stroke-width="1"  opacity="1"></path></g><g class="highcharts-axis" ></g><g class="highcharts-axis" ></g><g class="highcharts-series-group" ><g class="highcharts-series" visibility="visible"  transform="translate(10,40) scale(1 1)" clip-path="url(#highcharts-5)"><path fill="none" d="M 290 92.4 L 306.65173717763236 128.08939118879965 L 346.0333309138383 128.4104351990838 L 320.48650040993266 158.38329701881716 L 313.27708689011115 174.16971060551478 L 298.67736275071604 183.5523835873265 L 281.32263724928396 183.5523835873265 L 243.4458262197777 194.33942121102956 L 229.02699918013462 162.76659403763435 L 261.98333454308084 141.20521759954192 L 290 154 L 290 92.4" stroke="#2f7ed8" stroke-width="2"  stroke-linejoin="round" stroke-linecap="round"></path><path fill="none" d="M 280 92.4 L 290 92.4 L 306.65173717763236 128.08939118879965 L 346.0333309138383 128.4104351990838 L 320.48650040993266 158.38329701881716 L 313.27708689011115 174.16971060551478 L 298.67736275071604 183.5523835873265 L 281.32263724928396 183.5523835873265 L 243.4458262197777 194.33942121102956 L 229.02699918013462 162.76659403763435 L 261.98333454308084 141.20521759954192 L 290 154 L 290 92.4 L 300 92.4" stroke-linejoin="round" visibility="visible" stroke-opacity="0.0001" stroke="rgb(192,192,192)" stroke-width="22"  class=" highcharts-tracker" style=""></path></g><g class="highcharts-markers highcharts-tracker" visibility="visible"  transform="translate(10,40) scale(1 1)" style="" clip-path="none"></g><g class="highcharts-series" visibility="visible"  transform="translate(10,40) scale(1 1)" clip-path="url(#highcharts-5)"><path fill="none" d="M 290 61.599999999999994 L 323.30347435526477 102.1787823775993 L 374.04999637075747 115.61565279862569 L 350.9730008198654 162.76659403763435 L 359.83126067033345 214.5091318165443 L 316.03208825214807 242.6571507619795 L 266.57112057306676 233.79143568578155 L 243.4458262197777 194.33942121102956 L 229.02699918013462 162.76659403763435 L 205.9500036292425 115.61565279862572 L 240.04478846710288 76.26817356639896 L 290 61.599999999999994" stroke="#C60B2E" stroke-width="2"  stroke-linejoin="round" stroke-linecap="round"></path><path fill="none" d="M 280 61.599999999999994 L 290 61.599999999999994 L 323.30347435526477 102.1787823775993 L 374.04999637075747 115.61565279862569 L 350.9730008198654 162.76659403763435 L 359.83126067033345 214.5091318165443 L 316.03208825214807 242.6571507619795 L 266.57112057306676 233.79143568578155 L 243.4458262197777 194.33942121102956 L 229.02699918013462 162.76659403763435 L 205.9500036292425 115.61565279862572 L 240.04478846710288 76.26817356639896 L 290 61.599999999999994 L 300 61.599999999999994" stroke-linejoin="round" visibility="visible" stroke-opacity="0.0001" stroke="rgb(192,192,192)" stroke-width="22"  class=" highcharts-tracker" style=""></path></g><g class="highcharts-markers highcharts-tracker" visibility="visible"  transform="translate(10,40) scale(1 1)" style="" clip-path="none"></g></g><text x="300" y="25" text-anchor="middle" class="highcharts-title"  style="color:#274b6d;font-size:16px;fill:#274b6d;width:536px;"><tspan x="300">Overall HR Maturity</tspan></text><g class="highcharts-legend"  transform="translate(241,358)"><rect x="0.5" y="0.5" width="117" height="26" rx="5" ry="5" stroke="#909090" stroke-width="1" fill="none" visibility="visible"></rect><g ><g><g class="highcharts-legend-item"  transform="translate(8,3)"><path fill="none" d="M 0 11 L 16 11" stroke="#2f7ed8" stroke-width="2"></path><text x="21" y="15" style="color:#274b6d;font-size:12px;cursor:pointer;fill:#274b6d;" text-anchor="start" ><tspan x="21">006</tspan></text></g><g class="highcharts-legend-item"  transform="translate(61,3)"><path fill="none" d="M 0 11 L 16 11" stroke="#C60B2E" stroke-width="2"></path><text x="21" y="15" style="color:#274b6d;font-size:12px;cursor:pointer;fill:#274b6d;" text-anchor="start" ><tspan x="21">Ideal</tspan></text></g></g></g></g><g class="highcharts-axis-labels highcharts-xaxis-labels" ><text x="300" y="61.80000000000001" text-anchor="middle" style="width:170px;color:#666;cursor:default;font-size:13px;font-family:verdana, sans-serif;fill:#666;" opacity="1"><tspan x="300">Recruitment</tspan></text><text x="374.7165609723635" y="83.73876176273095" text-anchor="start" style="width:170px;color:#666;cursor:default;font-size:13px;font-family:verdana, sans-serif;fill:#666;" opacity="1"><tspan x="374.7165609723635">HR Management</tspan></text><text x="425.71114175799437" y="142.5896452031393" text-anchor="start" style="width:170px;color:#666;cursor:default;font-size:13px;font-family:verdana, sans-serif;fill:#666;" opacity="1"><tspan x="425.71114175799437">Manpower Planning</tspan></text><text x="436.79332326794474" y="219.66791064936797" text-anchor="start" style="width:170px;color:#666;cursor:default;font-size:13px;font-family:verdana, sans-serif;fill:#666;" opacity="1"><tspan x="436.79332326794474">Training &amp; Development</tspan></text><text x="404.44459117575843" y="282.00175343123834" text-anchor="start" style="width:170px;color:#666;cursor:default;font-size:13px;font-family:verdana, sans-serif;fill:#666;" opacity="1"><tspan x="404.44459117575843">Performance</tspan><tspan dy="17" x="404.44459117575843">Management</tspan></text><text x="338.9354393554855" y="332.6019289535234" text-anchor="middle" style="width:170px;color:#666;cursor:default;font-size:13px;font-family:verdana, sans-serif;fill:#666;" opacity="1"><tspan style="text-anchor: start; " x="338.9354393554855">Compensation &amp; Benefits</tspan></text><text x="261.0645606445145" y="324.1019289535234" text-anchor="middle" style="width:170px;color:#666;cursor:default;font-size:13px;font-family:verdana, sans-serif;fill:#666;" opacity="1"><tspan style="text-anchor: end; " x="261.0645606445145">Talent Management &amp;</tspan><tspan dy="17" x="261.0645606445145" style="text-anchor: end; ">Succession Planning</tspan></text><text x="195.55540882424157" y="282.00175343123834" text-anchor="end" style="width:170px;color:#666;cursor:default;font-size:13px;font-family:verdana, sans-serif;fill:#666;" opacity="1"><tspan x="195.55540882424157">Organization Culture &amp;</tspan><tspan dy="17" x="195.55540882424157">Core Values</tspan></text><text x="163.20667673205526" y="211.16791064936797" text-anchor="end" style="width:170px;color:#666;cursor:default;font-size:13px;font-family:verdana, sans-serif;fill:#666;" opacity="1"><tspan x="163.20667673205526">Employee Engagement &amp;</tspan><tspan dy="17" x="163.20667673205526">Communications</tspan></text><text x="174.28885824200557" y="134.08964520313936" text-anchor="end" style="width:170px;color:#666;cursor:default;font-size:13px;font-family:verdana, sans-serif;fill:#666;" opacity="1"><tspan x="174.28885824200557">Employee Value</tspan><tspan dy="17" x="174.28885824200557">Proposition (EVP)</tspan></text><text x="225.28343902763658" y="83.73876176273092" text-anchor="end" style="width:170px;color:#666;cursor:default;font-size:13px;font-family:verdana, sans-serif;fill:#666;" opacity="1"><tspan x="225.28343902763658">International Mobility</tspan></text><text x="0" y="-9999" text-anchor="middle" style="width:170px;color:#666;cursor:default;font-size:13px;font-family:verdana, sans-serif;fill:#666;"><tspan x="0">11</tspan></text></g><g class="highcharts-axis-labels highcharts-yaxis-labels" ><text x="297" y="192" text-anchor="end" style="width:178px;color:#666;cursor:default;font-size:11px;fill:#666;" opacity="1"><tspan x="297">0</tspan></text><text x="297" y="161.2" text-anchor="end" style="width:178px;color:#666;cursor:default;font-size:11px;fill:#666;" opacity="1"><tspan x="297">1</tspan></text><text x="297" y="130.4" text-anchor="end" style="width:178px;color:#666;cursor:default;font-size:11px;fill:#666;" opacity="1"><tspan x="297">2</tspan></text><text x="297" y="99.6" text-anchor="end" style="width:178px;color:#666;cursor:default;font-size:11px;fill:#666;" opacity="1"><tspan x="297">3</tspan></text><text x="0" y="-9999" text-anchor="end" style="width:178px;color:#666;cursor:default;font-size:11px;fill:#666;"><tspan x="0">4</tspan></text></g><g class="highcharts-tooltip"  style="cursor:default;padding:0;white-space:nowrap;" transform="translate(0,-9999)"><rect x="0.5" y="0.5" width="16" height="16" fill="none" fill-opacity="0.85" rx="3" ry="3"  stroke="black" stroke-opacity="0.049999999999999996" stroke-width="5" transform="translate(1, 1)"></rect><rect x="0.5" y="0.5" width="16" height="16" fill="none" fill-opacity="0.85" rx="3" ry="3"  stroke="black" stroke-opacity="0.09999999999999999" stroke-width="3" transform="translate(1, 1)"></rect><rect x="0.5" y="0.5" width="16" height="16" fill="none" fill-opacity="0.85" rx="3" ry="3"  stroke="black" stroke-opacity="0.15" stroke-width="1" transform="translate(1, 1)"></rect><rect x="0.5" y="0.5" width="16" height="16" fill="rgb(255,255,255)" fill-opacity="0.85" rx="3" ry="3"></rect><text x="8" y="21"  style="font-size:12px;color:#333333;fill:#333333;"></text></g></svg>